<?xml version="1.0" encoding="utf-8"?>
<!-- Generator: Adobe Illustrator 21.0.2, SVG Export Plug-In . SVG Version: 6.00 Build 0)  -->
<svg version="1.1" id="Layer_1" xmlns="http://www.w3.org/2000/svg" xmlns:xlink="http://www.w3.org/1999/xlink" x="0px" y="0px"
	 viewBox="0 0 1158 938" style="enable-background:new 0 0 1158 938;" xml:space="preserve">
<style type="text/css">
	.st0{fill:#E04328;}
	.st1{fill:#3088BB;}
	.st2{font-family:'OpenSans-Light';}
	.st3{font-size:63.0482px;}
</style>
<g>
	<g>
		<path class="st0" d="M1066.4,51.2C607.9-138.5,717.8,323.1,562.4,381c-108.6,40.5-121-139-157.6-192.9
			c-86.7-127.5-257.1-90.7-352,8.6c162.2,3,330.8-48.5,500,490.9C573.4,753,541.4,244.9,1066.4,51.2"/>
		<path class="st1" d="M636.2,151.4c0,50-40.6,90.5-90.7,90.5c-50.1,0-90.8-40.5-90.8-90.5c0-49.9,40.6-90.5,90.8-90.5
			C595.6,60.9,636.2,101.4,636.2,151.4"/>
		<path class="st1" d="M911.4,432.9c0,51.1-41.5,92.6-92.9,92.6c-51.3,0-92.9-41.5-92.9-92.6c0-51.2,41.6-92.7,92.9-92.7
			C869.8,340.2,911.4,381.7,911.4,432.9"/>
		<path class="st1" d="M391.9,434.9c0,50-40.6,90.5-90.8,90.5c-50.1,0-90.7-40.5-90.7-90.5c0-50,40.6-90.5,90.7-90.5
			C351.3,344.4,391.9,384.8,391.9,434.9"/>
		<path class="st0" d="M1086.5,38.5c1.3,0,2.6,0.2,3.7,0.7c1.1,0.5,2.2,1.2,3,2c0.9,0.9,1.5,1.9,2,3c0.5,1.1,0.7,2.4,0.7,3.7
			c0,1.3-0.2,2.6-0.7,3.7c-0.5,1.2-1.2,2.2-2,3c-0.9,0.9-1.9,1.5-3,2c-1.1,0.5-2.4,0.7-3.7,0.7s-2.6-0.2-3.7-0.7
			c-1.2-0.5-2.2-1.2-3-2c-0.9-0.9-1.5-1.9-2-3c-0.5-1.1-0.7-2.4-0.7-3.7c0-1.3,0.2-2.6,0.7-3.7c0.5-1.1,1.2-2.2,2-3
			c0.9-0.9,1.9-1.5,3-2C1083.9,38.8,1085.2,38.5,1086.5,38.5z M1086.5,39.3c-1.2,0-2.4,0.2-3.4,0.7c-1.1,0.4-2,1-2.7,1.8
			c-0.8,0.8-1.4,1.7-1.8,2.7c-0.4,1.1-0.6,2.2-0.6,3.4c0,1.2,0.2,2.3,0.7,3.4c0.4,1.1,1,2,1.8,2.8c0.8,0.8,1.7,1.4,2.7,1.8
			c1,0.4,2.2,0.7,3.4,0.7c1.2,0,2.3-0.2,3.4-0.7c1-0.5,1.9-1.1,2.7-1.9c0.8-0.8,1.4-1.7,1.8-2.8c0.4-1,0.7-2.2,0.7-3.4
			c0-1.2-0.2-2.4-0.7-3.4c-0.4-1-1-2-1.8-2.7c-0.8-0.8-1.7-1.4-2.7-1.8C1088.9,39.6,1087.7,39.3,1086.5,39.3z M1083,42.4h4.2
			c1.3,0,2.2,0.3,2.8,0.8c0.6,0.5,0.9,1.3,0.9,2.3c0,0.4-0.1,0.9-0.2,1.2c-0.1,0.3-0.4,0.6-0.6,0.9c-0.3,0.2-0.6,0.4-0.9,0.6
			c-0.3,0.2-0.7,0.3-1.1,0.3l3.3,5.1h-1.1l-3.4-5.2h-2.9v5.2h-1V42.4z M1084,47.6h2.4c0.4,0,0.9,0,1.3-0.1c0.4,0,0.8-0.1,1.1-0.3
			c0.3-0.1,0.6-0.4,0.8-0.6c0.2-0.3,0.3-0.7,0.3-1.2c0-0.4-0.1-0.8-0.3-1.1c-0.2-0.3-0.4-0.5-0.7-0.7c-0.3-0.2-0.6-0.3-0.9-0.4
			c-0.3-0.1-0.7-0.1-1-0.1h-3.1V47.6z"/>
	</g>
	<g>
		<path class="st1" d="M111.6,762.9h12.2l-25.3,72.1H86.1L61,762.9h12.1l15,44.8c0.8,2.1,1.6,4.9,2.5,8.3c0.9,3.4,1.5,5.9,1.7,7.5
			c0.4-2.5,1.1-5.4,2-8.7c0.9-3.3,1.6-5.7,2.2-7.3L111.6,762.9z"/>
		<path class="st1" d="M159,836c-8.5,0-15.1-2.5-19.9-7.4c-4.8-4.9-7.2-11.8-7.2-20.5c0-8.9,2.2-15.9,6.7-21
			c4.4-5.1,10.5-7.6,18.3-7.6c7.2,0,12.9,2.2,17.1,6.6c4.2,4.4,6.3,10.4,6.3,18.1v6.3h-36.4c0.2,5.3,1.6,9.4,4.3,12.2
			c2.7,2.8,6.5,4.3,11.4,4.3c3.2,0,6.2-0.3,9-0.9c2.8-0.6,5.8-1.6,9-3v9.4c-2.8,1.4-5.7,2.3-8.6,2.9C166,835.8,162.7,836,159,836z
			 M156.9,788.3c-3.7,0-6.6,1.2-8.9,3.5c-2.2,2.3-3.5,5.7-4,10.2h24.8c-0.1-4.5-1.2-7.9-3.3-10.2
			C163.4,789.4,160.6,788.3,156.9,788.3z"/>
		<path class="st1" d="M216.7,826.7c2.8,0,5.7-0.4,8.5-1.3v8.7c-1.3,0.6-2.9,1-5,1.4c-2,0.4-4.1,0.6-6.3,0.6
			c-11,0-16.5-5.8-16.5-17.4v-29.4H190v-5.1l8-4.2l3.9-11.5h7.2v12.1h15.5v8.8h-15.5v29.2c0,2.8,0.7,4.9,2.1,6.2
			C212.6,826,214.5,826.7,216.7,826.7z"/>
		<path class="st1" d="M263,836c-8.5,0-15.1-2.5-19.9-7.4c-4.8-4.9-7.2-11.8-7.2-20.5c0-8.9,2.2-15.9,6.7-21
			c4.4-5.1,10.5-7.6,18.3-7.6c7.2,0,12.9,2.2,17.1,6.6c4.2,4.4,6.3,10.4,6.3,18.1v6.3h-36.4c0.2,5.3,1.6,9.4,4.3,12.2
			c2.7,2.8,6.5,4.3,11.4,4.3c3.2,0,6.2-0.3,9-0.9c2.8-0.6,5.8-1.6,9-3v9.4c-2.8,1.4-5.7,2.3-8.6,2.9C270,835.8,266.7,836,263,836z
			 M260.9,788.3c-3.7,0-6.6,1.2-8.9,3.5c-2.2,2.3-3.5,5.7-4,10.2h24.8c-0.1-4.5-1.2-7.9-3.3-10.2
			C267.4,789.4,264.6,788.3,260.9,788.3z"/>
		<path class="st1" d="M328.1,779.5c2.3,0,4.3,0.2,5.8,0.5l-1.1,10.8c-1.6-0.4-3.4-0.6-5.1-0.6c-4.6,0-8.4,1.5-11.3,4.5
			c-2.9,3-4.3,7-4.3,11.8v28.5h-11.6v-54.6h9.1l1.5,9.6h0.6c1.8-3.3,4.2-5.8,7.1-7.7C321.6,780.5,324.7,779.5,328.1,779.5z"/>
		<path class="st1" d="M381.2,835.1l-2.3-7.6h-0.4c-2.6,3.3-5.3,5.6-7.9,6.8c-2.7,1.2-6.1,1.8-10.3,1.8c-5.4,0-9.5-1.4-12.6-4.3
			c-3-2.9-4.5-7-4.5-12.3c0-5.6,2.1-9.9,6.3-12.7c4.2-2.9,10.5-4.4,19.1-4.7l9.4-0.3v-2.9c0-3.5-0.8-6.1-2.4-7.8
			c-1.6-1.7-4.2-2.6-7.6-2.6c-2.8,0-5.5,0.4-8,1.2c-2.6,0.8-5,1.8-7.4,2.9l-3.7-8.3c3-1.5,6.2-2.7,9.7-3.5c3.5-0.8,6.8-1.2,10-1.2
			c6.9,0,12.2,1.5,15.7,4.5c3.5,3,5.3,7.8,5.3,14.3v36.8H381.2z M363.9,827.2c4.2,0,7.6-1.2,10.1-3.5c2.5-2.3,3.8-5.6,3.8-9.9V809
			l-7,0.3c-5.5,0.2-9.4,1.1-11.9,2.7c-2.5,1.6-3.7,4.1-3.7,7.5c0,2.4,0.7,4.3,2.2,5.6C358.8,826.5,361,827.2,363.9,827.2z"/>
		<path class="st1" d="M456.7,835.1H445v-33.6c0-4.2-0.8-7.4-2.5-9.4c-1.7-2.1-4.4-3.1-8.1-3.1c-4.9,0-8.5,1.4-10.8,4.3
			c-2.3,2.9-3.4,7.7-3.4,14.6v27.2h-11.6v-54.6h9.1l1.6,7.2h0.6c1.6-2.6,4-4.6,7-6c3-1.4,6.4-2.1,10.1-2.1c13.1,0,19.6,6.7,19.6,20
			V835.1z"/>
		<path class="st1" d="M512.5,819.5c0,5.3-1.9,9.4-5.8,12.3c-3.9,2.8-9.4,4.3-16.7,4.3c-7.3,0-13.1-1.1-17.5-3.3v-10
			c6.4,3,12.4,4.4,17.9,4.4c7.1,0,10.7-2.2,10.7-6.5c0-1.4-0.4-2.5-1.2-3.5c-0.8-0.9-2.1-1.9-3.9-2.9c-1.8-1-4.3-2.1-7.5-3.4
			c-6.3-2.4-10.5-4.9-12.8-7.3c-2.2-2.4-3.3-5.6-3.3-9.5c0-4.7,1.9-8.3,5.6-10.9c3.8-2.6,8.9-3.9,15.4-3.9c6.4,0,12.5,1.3,18.2,3.9
			l-3.7,8.7c-5.9-2.4-10.8-3.7-14.9-3.7c-6.1,0-9.2,1.7-9.2,5.2c0,1.7,0.8,3.2,2.4,4.3c1.6,1.2,5.1,2.8,10.4,4.9
			c4.5,1.7,7.8,3.3,9.8,4.8c2,1.4,3.6,3.1,4.5,5C512,814.6,512.5,816.9,512.5,819.5z"/>
		<path class="st1" d="M603.3,835.1l-7.2-20h-27.6l-7.1,20H549l27-72.4h12.8l27,72.4H603.3z M593,804.9l-6.8-19.6
			c-0.5-1.3-1.2-3.4-2-6.2c-0.9-2.8-1.5-4.9-1.8-6.2c-0.9,4-2.2,8.5-3.9,13.3l-6.5,18.8H593z"/>
		<path class="st1" d="M645.6,836c-6.8,0-12.1-2.5-15.9-7.4c-3.8-4.9-5.7-11.9-5.7-20.8c0-8.9,1.9-15.9,5.8-20.9
			c3.9-5,9.2-7.5,16.1-7.5c7.2,0,12.6,2.6,16.4,7.9h0.6c-0.6-3.9-0.8-7-0.8-9.3v-19.9h11.6v76.8h-9.1l-2-7.2h-0.5
			C658.2,833.3,652.7,836,645.6,836z M648.7,826.7c4.8,0,8.2-1.3,10.4-4c2.2-2.7,3.3-7,3.4-13V808c0-6.9-1.1-11.8-3.4-14.7
			c-2.2-2.9-5.7-4.3-10.5-4.3c-4.1,0-7.2,1.7-9.4,5s-3.3,8-3.3,14.1c0,6.1,1.1,10.7,3.2,13.8C641.2,825.1,644.4,826.7,648.7,826.7z"
			/>
		<path class="st1" d="M705.6,835.1l-20.7-54.6h12.2l11.1,31.7c1.9,5.3,3.1,9.6,3.5,12.9h0.4c0.3-2.4,1.4-6.7,3.5-12.9l11.1-31.7
			h12.3l-20.8,54.6H705.6z"/>
		<path class="st1" d="M784.4,835.1l-2.3-7.6h-0.4c-2.6,3.3-5.3,5.6-7.9,6.8c-2.7,1.2-6.1,1.8-10.3,1.8c-5.4,0-9.5-1.4-12.6-4.3
			c-3-2.9-4.5-7-4.5-12.3c0-5.6,2.1-9.9,6.3-12.7c4.2-2.9,10.5-4.4,19.1-4.7l9.4-0.3v-2.9c0-3.5-0.8-6.1-2.4-7.8
			c-1.6-1.7-4.2-2.6-7.6-2.6c-2.8,0-5.5,0.4-8,1.2c-2.6,0.8-5,1.8-7.4,2.9l-3.7-8.3c3-1.5,6.2-2.7,9.7-3.5c3.5-0.8,6.8-1.2,10-1.2
			c6.9,0,12.2,1.5,15.7,4.5c3.5,3,5.3,7.8,5.3,14.3v36.8H784.4z M767.1,827.2c4.2,0,7.6-1.2,10.1-3.5c2.5-2.3,3.8-5.6,3.8-9.9V809
			l-7,0.3c-5.5,0.2-9.4,1.1-11.9,2.7s-3.7,4.1-3.7,7.5c0,2.4,0.7,4.3,2.2,5.6C762.1,826.5,764.2,827.2,767.1,827.2z"/>
		<path class="st1" d="M859.9,835.1h-11.6v-33.6c0-4.2-0.8-7.4-2.5-9.4c-1.7-2.1-4.4-3.1-8.1-3.1c-4.9,0-8.5,1.4-10.8,4.3
			c-2.3,2.9-3.4,7.7-3.4,14.6v27.2h-11.6v-54.6h9.1l1.6,7.2h0.6c1.6-2.6,4-4.6,7-6c3-1.4,6.4-2.1,10.1-2.1c13.1,0,19.6,6.7,19.6,20
			V835.1z"/>
		<path class="st1" d="M899.4,826.7c2.8,0,5.7-0.4,8.5-1.3v8.7c-1.3,0.6-2.9,1-5,1.4c-2,0.4-4.1,0.6-6.3,0.6
			c-11,0-16.5-5.8-16.5-17.4v-29.4h-7.5v-5.1l8-4.2l3.9-11.5h7.2v12.1h15.5v8.8h-15.5v29.2c0,2.8,0.7,4.9,2.1,6.2
			C895.3,826,897.1,826.7,899.4,826.7z"/>
		<path class="st1" d="M956,835.1l-2.3-7.6h-0.4c-2.6,3.3-5.3,5.6-7.9,6.8c-2.7,1.2-6.1,1.8-10.3,1.8c-5.4,0-9.5-1.4-12.6-4.3
			c-3-2.9-4.5-7-4.5-12.3c0-5.6,2.1-9.9,6.3-12.7s10.5-4.4,19.1-4.7l9.4-0.3v-2.9c0-3.5-0.8-6.1-2.4-7.8c-1.6-1.7-4.2-2.6-7.6-2.6
			c-2.8,0-5.5,0.4-8,1.2c-2.6,0.8-5,1.8-7.4,2.9l-3.7-8.3c3-1.5,6.2-2.7,9.7-3.5c3.5-0.8,6.8-1.2,10-1.2c6.9,0,12.2,1.5,15.7,4.5
			c3.5,3,5.3,7.8,5.3,14.3v36.8H956z M938.7,827.2c4.2,0,7.6-1.2,10.1-3.5c2.5-2.3,3.8-5.6,3.8-9.9V809l-7,0.3
			c-5.5,0.2-9.4,1.1-11.9,2.7c-2.5,1.6-3.7,4.1-3.7,7.5c0,2.4,0.7,4.3,2.2,5.6C933.6,826.5,935.8,827.2,938.7,827.2z"/>
		<path class="st1" d="M1029.6,780.5v6.4l-9.3,1.7c0.9,1.2,1.6,2.6,2.1,4.2c0.6,1.7,0.8,3.5,0.8,5.3c0,5.6-1.9,10-5.8,13.3
			c-3.9,3.2-9.2,4.8-16,4.8c-1.7,0-3.3-0.1-4.7-0.4c-2.5,1.5-3.7,3.4-3.7,5.4c0,1.3,0.6,2.2,1.8,2.8c1.2,0.6,3.3,0.9,6.4,0.9h9.5
			c6,0,10.6,1.3,13.7,3.8c3.1,2.6,4.7,6.3,4.7,11.1c0,6.2-2.6,11-7.6,14.3c-5.1,3.4-12.5,5-22.1,5c-7.4,0-13.1-1.3-17-3.9
			c-3.9-2.6-5.9-6.4-5.9-11.2c0-3.4,1.1-6.2,3.2-8.5c2.1-2.3,5.1-3.9,8.9-4.8c-1.5-0.7-2.8-1.7-3.8-3.2c-1-1.5-1.5-3-1.5-4.6
			c0-2,0.6-3.8,1.7-5.2c1.1-1.4,2.9-2.8,5.1-4.2c-2.8-1.2-5.1-3.2-6.9-5.9c-1.8-2.7-2.6-6-2.6-9.6c0-5.9,1.9-10.5,5.6-13.8
			c3.7-3.3,9.1-4.9,16-4.9c1.5,0,3.2,0.1,4.9,0.3c1.7,0.2,3,0.4,3.8,0.7H1029.6z M986.7,843.5c0,2.5,1.1,4.4,3.4,5.8
			c2.3,1.3,5.4,2,9.5,2c6.3,0,11-0.9,14.1-2.7c3.1-1.8,4.6-4.2,4.6-7.2c0-2.4-0.9-4.1-2.5-5.1c-1.7-1-4.8-1.5-9.4-1.5h-8.8
			c-3.3,0-6,0.8-7.9,2.3C987.7,838.8,986.7,840.9,986.7,843.5z M991.7,798.2c0,3.4,0.9,6.1,2.6,7.9c1.8,1.8,4.3,2.8,7.6,2.8
			c6.7,0,10.1-3.6,10.1-10.8c0-3.6-0.8-6.3-2.5-8.2c-1.7-1.9-4.2-2.9-7.6-2.9c-3.4,0-5.9,1-7.6,2.9
			C992.5,791.7,991.7,794.5,991.7,798.2z"/>
		<path class="st1" d="M1066.5,836c-8.5,0-15.1-2.5-19.9-7.4c-4.8-4.9-7.2-11.8-7.2-20.5c0-8.9,2.2-15.9,6.7-21
			c4.4-5.1,10.5-7.6,18.3-7.6c7.2,0,12.9,2.2,17.1,6.6c4.2,4.4,6.3,10.4,6.3,18.1v6.3h-36.4c0.2,5.3,1.6,9.4,4.3,12.2
			c2.7,2.8,6.5,4.3,11.4,4.3c3.2,0,6.2-0.3,9-0.9c2.8-0.6,5.8-1.6,9-3v9.4c-2.8,1.4-5.7,2.3-8.6,2.9
			C1073.5,835.8,1070.2,836,1066.5,836z M1064.4,788.3c-3.7,0-6.6,1.2-8.9,3.5c-2.2,2.3-3.5,5.7-4,10.2h24.8
			c-0.1-4.5-1.2-7.9-3.3-10.2C1071,789.4,1068.1,788.3,1064.4,788.3z"/>
	</g>
	<path class="st1" d="M1095,765.4c1.4,0,2.8,0.3,4.1,0.8c1.3,0.5,2.4,1.3,3.3,2.2c0.9,0.9,1.7,2,2.2,3.3c0.5,1.3,0.8,2.6,0.8,4.1
		c0,1.4-0.3,2.8-0.8,4.1c-0.5,1.3-1.3,2.4-2.2,3.3c-0.9,0.9-2,1.7-3.3,2.2c-1.3,0.5-2.6,0.8-4.1,0.8s-2.8-0.3-4.1-0.8
		c-1.3-0.5-2.4-1.3-3.3-2.2c-0.9-0.9-1.7-2-2.2-3.3c-0.5-1.3-0.8-2.6-0.8-4.1c0-1.4,0.3-2.8,0.8-4.1c0.5-1.3,1.3-2.4,2.2-3.3
		c0.9-0.9,2-1.7,3.3-2.2C1092.2,765.7,1093.6,765.4,1095,765.4z M1095,766.3c-1.3,0-2.6,0.2-3.7,0.7c-1.2,0.5-2.1,1.1-3,2
		c-0.8,0.8-1.5,1.9-2,3c-0.5,1.2-0.7,2.4-0.7,3.7c0,1.3,0.2,2.5,0.7,3.7c0.5,1.1,1.1,2.1,2,3c0.8,0.9,1.8,1.5,3,2
		c1.1,0.5,2.4,0.7,3.7,0.7s2.6-0.3,3.7-0.7c1.1-0.5,2.1-1.2,2.9-2c0.8-0.9,1.5-1.9,2-3c0.5-1.2,0.7-2.4,0.7-3.7
		c0-1.3-0.2-2.6-0.7-3.7c-0.5-1.1-1.1-2.1-1.9-3c-0.8-0.8-1.8-1.5-2.9-2C1097.6,766.5,1096.4,766.3,1095,766.3z M1091.2,769.6h4.6
		c1.4,0,2.4,0.3,3,0.9c0.6,0.6,1,1.4,1,2.5c0,0.5-0.1,0.9-0.2,1.3c-0.2,0.4-0.4,0.7-0.7,1c-0.3,0.3-0.6,0.5-1,0.6
		c-0.4,0.2-0.8,0.3-1.2,0.3l3.7,5.6h-1.2l-3.7-5.7h-3.2v5.7h-1.1V769.6z M1092.3,775.3h2.6c0.5,0,0.9,0,1.4-0.1
		c0.5,0,0.9-0.1,1.3-0.3c0.4-0.2,0.7-0.4,0.9-0.7c0.2-0.3,0.3-0.7,0.3-1.3c0-0.5-0.1-0.9-0.3-1.2s-0.4-0.6-0.7-0.8s-0.6-0.3-1-0.4
		c-0.4-0.1-0.7-0.1-1.1-0.1h-3.4V775.3z"/>
	<text transform="matrix(1 0 0 1 389.2017 933.0352)" class="st0 st2 st3">STYLE GUIDE</text>
</g>
</svg>
